<svg width="24" height="24" viewBox="0 0 14 12" fill="none" xmlns="http://www.w3.org/2000/svg">
<path fill-rule="evenodd" clip-rule="evenodd" d="M4.06585 0.918243C3.84235 0.422045 3.6074 0.410638 3.39536 0.404935C3.22344 0.399231 3.02287 0.399231 2.8223 0.399231C2.62172 0.399231 2.30081 0.473375 2.02574 0.769953C1.75067 1.06653 0.982758 1.78516 0.982758 3.25094C0.982758 4.71102 2.05439 6.12547 2.20339 6.32509C2.35238 6.52471 4.27215 9.62167 7.30367 10.8137C9.82516 11.8061 10.3409 11.6065 10.8853 11.5551C11.4297 11.5038 12.6504 10.8365 12.9025 10.1407C13.1489 9.44486 13.1489 8.8517 13.0744 8.72623C12.9999 8.60075 12.7994 8.52661 12.5014 8.37832C12.2034 8.23003 10.7363 7.5114 10.4613 7.40874C10.1862 7.31178 9.98562 7.26045 9.79077 7.55703C9.5902 7.8536 9.01714 8.52091 8.84522 8.72053C8.6733 8.92015 8.49565 8.94296 8.19765 8.79467C7.89966 8.64638 6.93691 8.33269 5.79651 7.31748C4.90826 6.53041 4.30654 5.55512 4.13462 5.25855C3.9627 4.96197 4.11743 4.80227 4.26642 4.65398C4.39823 4.52281 4.56442 4.30608 4.71341 4.13497C4.86241 3.96387 4.91399 3.8384 5.01141 3.63878C5.10883 3.43916 5.06298 3.26805 4.98849 3.11976C4.91399 2.97718 4.32946 1.5057 4.06585 0.918243Z" fill="currentColor"/>
</svg>
